<svg width="26" height="24" viewBox="0 0 26 24" fill="none" xmlns="http://www.w3.org/2000/svg">
<path fill-rule="evenodd" clip-rule="evenodd" d="M23.6018 15.835C23.6018 15.0149 22.4027 15.0149 22.4027 15.835V21.7533H2.19913V2.2467H22.4027V8.16503C22.4027 8.98508 23.6018 8.98508 23.6018 8.16503V1.62335C23.6018 1.27919 23.3334 1 23.0021 1H1.59942C1.26847 1 1 1.27919 1 1.62335V22.3767C1 22.7208 1.26847 23 1.59942 23H23.0021C23.3334 23 23.6018 22.7208 23.6018 22.3767V15.835ZM4.2412 18.3015C3.45263 18.3015 3.45263 19.5485 4.2412 19.5485H16.761C17.5496 19.5485 17.5496 18.3015 16.761 18.3015H4.2412ZM4.41991 3.79374H9.36838C9.69933 3.79374 9.9678 4.07293 9.9678 4.41709V8.44695C9.9678 8.79141 9.69933 9.0706 9.36838 9.0706H4.41991C4.08896 9.0706 3.82049 8.79141 3.82049 8.44695V4.41709C3.82049 4.07293 4.08896 3.79374 4.41991 3.79374ZM5.01953 5.04074H8.76859V7.8236H5.01953V5.04074ZM23.8008 10.5896H18.1445C17.3998 10.5896 16.7882 11.2256 16.7882 12C16.7882 12.7744 17.3998 13.4105 18.1445 13.4105H23.8008V10.5896ZM24.4006 9.34255H18.1446C16.7377 9.34255 15.5892 10.537 15.5892 12C15.5892 13.4631 16.738 14.6575 18.1446 14.6575H24.4006C24.7316 14.6575 25 14.3783 25 14.0341V9.9659C25 9.62174 24.7316 9.34255 24.4006 9.34255Z" fill="#E7DFDC"/>
<path d="M22.4027 21.7533V21.9533H22.6027V21.7533H22.4027ZM2.19913 21.7533H1.99913V21.9533H2.19913V21.7533ZM2.19913 2.2467V2.0467H1.99913V2.2467H2.19913ZM22.4027 2.2467H22.6027V2.0467H22.4027V2.2467ZM8.76859 5.04074H8.96859V4.84074H8.76859V5.04074ZM5.01953 5.04074V4.84074H4.81953V5.04074H5.01953ZM8.76859 7.8236V8.0236H8.96859V7.8236H8.76859ZM5.01953 7.8236H4.81953V8.0236H5.01953V7.8236ZM23.8008 10.5896H24.0008V10.3896H23.8008V10.5896ZM23.8008 13.4105V13.6105H24.0008V13.4105H23.8008ZM22.6027 15.835C22.6027 15.6825 22.6566 15.5836 22.7248 15.5215C22.7963 15.4563 22.8964 15.4199 23.0023 15.4199C23.1082 15.4199 23.2082 15.4563 23.2797 15.5215C23.3479 15.5836 23.4018 15.6825 23.4018 15.835H23.8018C23.8018 15.5774 23.7059 15.3687 23.5492 15.2259C23.3959 15.0861 23.1962 15.0199 23.0023 15.0199C22.8084 15.0199 22.6087 15.0861 22.4553 15.2259C22.2987 15.3687 22.2027 15.5774 22.2027 15.835H22.6027ZM22.6027 21.7533V15.835H22.2027V21.7533H22.6027ZM2.19913 21.9533H22.4027V21.5533H2.19913V21.9533ZM1.99913 2.2467V21.7533H2.39913V2.2467H1.99913ZM22.4027 2.0467H2.19913V2.4467H22.4027V2.0467ZM22.6027 8.16503V2.2467H22.2027V8.16503H22.6027ZM23.4018 8.16503C23.4018 8.31753 23.3479 8.41636 23.2797 8.47853C23.2082 8.5437 23.1082 8.58007 23.0023 8.58007C22.8964 8.58007 22.7963 8.5437 22.7248 8.47853C22.6566 8.41636 22.6027 8.31753 22.6027 8.16503H22.2027C22.2027 8.42256 22.2987 8.63125 22.4553 8.7741C22.6087 8.91394 22.8084 8.98007 23.0023 8.98007C23.1962 8.98007 23.3959 8.91394 23.5492 8.7741C23.7059 8.63125 23.8018 8.42256 23.8018 8.16503H23.4018ZM23.4018 1.62335V8.16503H23.8018V1.62335H23.4018ZM23.0021 1.2C23.2157 1.2 23.4018 1.38226 23.4018 1.62335H23.8018C23.8018 1.17612 23.4511 0.8 23.0021 0.8V1.2ZM1.59942 1.2H23.0021V0.8H1.59942V1.2ZM1.2 1.62335C1.2 1.3822 1.38624 1.2 1.59942 1.2V0.8C1.15071 0.8 0.8 1.17619 0.8 1.62335H1.2ZM1.2 22.3767V1.62335H0.8V22.3767H1.2ZM1.59942 22.8C1.38624 22.8 1.2 22.6178 1.2 22.3767H0.8C0.8 22.8238 1.15071 23.2 1.59942 23.2V22.8ZM23.0021 22.8H1.59942V23.2H23.0021V22.8ZM23.4018 22.3767C23.4018 22.6177 23.2157 22.8 23.0021 22.8V23.2C23.4511 23.2 23.8018 22.8239 23.8018 22.3767H23.4018ZM23.4018 15.835V22.3767H23.8018V15.835H23.4018ZM4.2412 19.3485C4.10212 19.3485 4.01053 19.2959 3.95053 19.2247C3.88679 19.1491 3.84977 19.041 3.84977 18.925C3.84977 18.8089 3.88679 18.7008 3.95053 18.6252C4.01053 18.5541 4.10212 18.5015 4.2412 18.5015V18.1015C3.98599 18.1015 3.78186 18.2047 3.64472 18.3674C3.51132 18.5256 3.44977 18.7292 3.44977 18.925C3.44977 19.1207 3.51132 19.3243 3.64472 19.4825C3.78186 19.6452 3.98599 19.7485 4.2412 19.7485V19.3485ZM16.761 19.3485H4.2412V19.7485H16.761V19.3485ZM16.761 18.5015C16.9001 18.5015 16.9917 18.5541 17.0517 18.6252C17.1154 18.7008 17.1524 18.8089 17.1524 18.925C17.1524 19.041 17.1154 19.1491 17.0517 19.2247C16.9917 19.2959 16.9001 19.3485 16.761 19.3485V19.7485C17.0162 19.7485 17.2203 19.6452 17.3575 19.4825C17.4909 19.3243 17.5524 19.1207 17.5524 18.925C17.5524 18.7292 17.4909 18.5256 17.3575 18.3674C17.2203 18.2047 17.0162 18.1015 16.761 18.1015V18.5015ZM4.2412 18.5015H16.761V18.1015H4.2412V18.5015ZM9.36838 3.59374H4.41991V3.99374H9.36838V3.59374ZM10.1678 4.41709C10.1678 3.96993 9.81709 3.59374 9.36838 3.59374V3.99374C9.58156 3.99374 9.7678 4.17594 9.7678 4.41709H10.1678ZM10.1678 8.44695V4.41709H9.7678V8.44695H10.1678ZM9.36838 9.2706C9.81715 9.2706 10.1678 8.89435 10.1678 8.44695H9.7678C9.7678 8.68846 9.5815 8.8706 9.36838 8.8706V9.2706ZM4.41991 9.2706H9.36838V8.8706H4.41991V9.2706ZM3.62049 8.44695C3.62049 8.89435 3.97114 9.2706 4.41991 9.2706V8.8706C4.20679 8.8706 4.02049 8.68846 4.02049 8.44695H3.62049ZM3.62049 4.41709V8.44695H4.02049V4.41709H3.62049ZM4.41991 3.59374C3.9712 3.59374 3.62049 3.96993 3.62049 4.41709H4.02049C4.02049 4.17594 4.20673 3.99374 4.41991 3.99374V3.59374ZM8.76859 4.84074H5.01953V5.24074H8.76859V4.84074ZM8.96859 7.8236V5.04074H8.56859V7.8236H8.96859ZM5.01953 8.0236H8.76859V7.6236H5.01953V8.0236ZM4.81953 5.04074V7.8236H5.21953V5.04074H4.81953ZM18.1445 10.7896H23.8008V10.3896H18.1445V10.7896ZM16.9882 12C16.9882 11.3286 17.5176 10.7896 18.1445 10.7896V10.3896C17.2821 10.3896 16.5882 11.1226 16.5882 12H16.9882ZM18.1445 13.2105C17.5176 13.2105 16.9882 12.6714 16.9882 12H16.5882C16.5882 12.8774 17.2821 13.6105 18.1445 13.6105V13.2105ZM23.8008 13.2105H18.1445V13.6105H23.8008V13.2105ZM23.6008 10.5896V13.4105H24.0008V10.5896H23.6008ZM18.1446 9.54255H24.4006V9.14255H18.1446V9.54255ZM15.7892 12C15.7892 10.64 16.8555 9.54255 18.1446 9.54255V9.14255C16.62 9.14255 15.3892 10.434 15.3892 12H15.7892ZM18.1446 14.4575C16.8558 14.4575 15.7892 13.36 15.7892 12H15.3892C15.3892 13.5661 16.6203 14.8575 18.1446 14.8575V14.4575ZM24.4006 14.4575H18.1446V14.8575H24.4006V14.4575ZM24.8 14.0341C24.8 14.2753 24.6138 14.4575 24.4006 14.4575V14.8575C24.8493 14.8575 25.2 14.4813 25.2 14.0341H24.8ZM24.8 9.9659V14.0341H25.2V9.9659H24.8ZM24.4006 9.54255C24.6138 9.54255 24.8 9.72475 24.8 9.9659H25.2C25.2 9.51874 24.8493 9.14255 24.4006 9.14255V9.54255Z" fill="#E7DFDC"/>
</svg>
