<svg width="27" height="27" viewBox="0 0 27 27" fill="none" xmlns="http://www.w3.org/2000/svg">
<path d="M9.10547 10.5703C9.10547 12.9935 11.0769 14.9648 13.5 14.9648C15.9231 14.9648 17.8945 12.9935 17.8945 10.5703C17.8945 8.14717 15.9231 6.17578 13.5 6.17578C11.0769 6.17578 9.10547 8.14717 9.10547 10.5703ZM16.918 10.5703C16.918 12.455 15.3847 13.9883 13.5 13.9883C11.6153 13.9883 10.082 12.455 10.082 10.5703C10.082 8.68564 11.6153 7.15234 13.5 7.15234C15.3847 7.15234 16.918 8.68564 16.918 10.5703Z" fill="#E7DFDC" stroke="#E7DFDC"/>
<path d="M22.4844 5.98047C22.754 5.98047 22.9727 5.76186 22.9727 5.49219C22.9727 5.22252 22.754 5.00391 22.4844 5.00391C22.2147 5.00391 21.9961 5.22252 21.9961 5.49219C21.9961 5.76186 22.2147 5.98047 22.4844 5.98047Z" fill="#E7DFDC"/>
<path d="M13.5 26C20.4289 26 26 20.3883 26 13.5C26 11.2066 25.3747 8.96465 24.1918 7.0165C24.0519 6.78604 23.7517 6.71265 23.521 6.85254C23.2905 6.99253 23.2171 7.29282 23.3571 7.52334C24.4472 9.3187 25.0234 11.3854 25.0234 13.5C25.0234 16.8412 23.6186 19.9402 21.1428 22.1271C20.3891 18.572 17.2367 15.9414 13.5 15.9414C9.76328 15.9414 6.6106 18.5723 5.85767 22.1275C3.38154 19.9404 1.97656 16.8413 1.97656 13.5C1.97656 7.14595 7.14595 1.97656 13.5 1.97656C16.0874 1.97656 18.5308 2.81226 20.5662 4.39336C20.7792 4.55879 21.0859 4.52022 21.2514 4.30728C21.4168 4.09434 21.3783 3.78755 21.1653 3.62212C18.957 1.90669 16.3063 1 13.5 1C10.1584 1 7.01865 2.29961 4.65903 4.65937C2.29946 7.01904 1 10.1587 1 13.5C1 20.4057 6.58882 26 13.5 26ZM13.5 16.918C16.952 16.918 19.8174 19.4395 20.2735 22.8265C18.2982 24.2646 15.9624 25.0234 13.5 25.0234C11.0379 25.0234 8.70234 24.2645 6.727 22.8264C7.18247 19.4394 10.0476 16.918 13.5 16.918Z" fill="#E7DFDC" stroke="#E7DFDC"/>
</svg>
